<?xml version="1.0" encoding="UTF-8" standalone="no"?>
<svg
   id="Calque_2"
   viewBox="0 0 211.61829 61.130004"
   version="1.1"
   sodipodi:docname="inria-logo.svg"
   width="211.61829"
   height="61.130001"
   inkscape:version="1.3.2 (091e20e, 2023-11-25)"
   xmlns:inkscape="http://www.inkscape.org/namespaces/inkscape"
   xmlns:sodipodi="http://sodipodi.sourceforge.net/DTD/sodipodi-0.dtd"
   xmlns="http://www.w3.org/2000/svg"
   xmlns:svg="http://www.w3.org/2000/svg">
  <sodipodi:namedview
     id="namedview26"
     pagecolor="#ffffff"
     bordercolor="#000000"
     borderopacity="0.25"
     inkscape:showpageshadow="2"
     inkscape:pageopacity="0.0"
     inkscape:pagecheckerboard="0"
     inkscape:deskcolor="#d1d1d1"
     inkscape:zoom="2.8599129"
     inkscape:cx="165.03999"
     inkscape:cy="5.7694065"
     inkscape:window-width="1448"
     inkscape:window-height="772"
     inkscape:window-x="0"
     inkscape:window-y="38"
     inkscape:window-maximized="0"
     inkscape:current-layer="Calque_2" />
  <defs
     id="defs1">
    <style
       id="style1">.cls-1{fill:#9d9d9c;}.cls-1,.cls-2,.cls-3,.cls-4,.cls-5{stroke-width:0px;}.cls-2{fill:#000;}.cls-3{fill:#e1000f;}.cls-4{fill:#fff;}.cls-5{fill:#000091;}</style>
  </defs>
  <path
     class="cls-2"
     d="m 0.03,16.14 h 2.48 c 1.78,0 2.88,0.92 2.88,2.42 0,0.97 -0.47,1.7 -1.3,2.1 l 2.55,3.59 H 4.67 L 2.52,20.97 H 1.67 v 3.28 H 0.03 Z m 1.65,1.41 v 2.03 h 0.93 c 0.69,0 1.1,-0.37 1.1,-1.03 0,-0.61 -0.41,-1 -1.1,-1 z"
     id="path1" />
  <path
     class="cls-2"
     d="m 7.67,16.14 h 4.73 v 1.4 H 9.32 v 1.88 h 2.62 v 1.4 H 9.32 v 2.03 h 3.08 v 1.4 H 7.67 Z m 1.6,-0.69 1.31,-1.56 h 1.69 l -1.51,1.56 z"
     id="path2" />
  <path
     class="cls-2"
     d="m 14.3,16.14 h 2.68 c 1.78,0 2.87,0.92 2.87,2.42 0,1.5 -1.09,2.41 -2.87,2.41 h -1.03 v 3.28 h -1.64 v -8.11 z m 1.65,1.41 v 2.03 h 1.1 c 0.69,0 1.11,-0.37 1.11,-1.03 0,-0.61 -0.42,-1 -1.11,-1 z"
     id="path3" />
  <path
     class="cls-2"
     d="m 25.99,16.14 h 1.64 v 4.93 c 0,2.13 -1.25,3.41 -3.29,3.41 -2.04,0 -3.28,-1.27 -3.28,-3.41 v -4.93 h 1.64 v 5.07 c 0,1.09 0.61,1.73 1.64,1.73 1.03,0 1.63,-0.64 1.63,-1.73 v -5.07 z"
     id="path4" />
  <path
     class="cls-2"
     d="m 29.67,16.14 h 2.3 c 1.69,0 2.71,0.83 2.71,2.2 0,0.65 -0.3,1.22 -0.86,1.6 0.86,0.38 1.33,1.08 1.33,1.92 0,1.48 -1.15,2.39 -3.01,2.39 h -2.48 v -8.11 z m 1.65,1.41 v 1.77 h 0.69 c 0.63,0 0.98,-0.31 0.98,-0.89 0,-0.54 -0.36,-0.88 -0.98,-0.88 z m 0,3.18 v 2.12 h 0.93 c 0.76,0 1.23,-0.41 1.23,-1.08 0,-0.67 -0.46,-1.04 -1.23,-1.04 z"
     id="path5" />
  <path
     class="cls-2"
     d="m 36.84,16.14 h 1.64 v 6.61 h 3.08 v 1.49 h -4.73 v -8.11 z"
     id="path6" />
  <path
     class="cls-2"
     d="m 43.02,16.14 h 1.64 v 8.11 h -1.64 z"
     id="path7" />
  <path
     class="cls-2"
     d="m 55.44,24.82 c 0.17,0 0.41,-0.02 0.58,-0.09 v 1.39 c -0.27,0.1 -0.5,0.15 -0.86,0.15 -0.9,0 -1.74,-0.37 -2.54,-1.07 l -0.96,-0.86 c -0.35,0.09 -0.72,0.14 -1.11,0.14 -2.56,0 -4.31,-1.97 -4.31,-4.29 0,-2.32 1.75,-4.29 4.31,-4.29 2.56,0 4.3,1.97 4.3,4.29 0,1.36 -0.6,2.59 -1.6,3.38 l 0.49,0.46 c 0.63,0.57 1.18,0.78 1.7,0.78 z M 53.15,20.2 c 0,-1.55 -1.09,-2.75 -2.61,-2.75 -1.52,0 -2.62,1.19 -2.62,2.75 0,1.56 1.09,2.75 2.62,2.75 1.53,0 2.61,-1.19 2.61,-2.75 z"
     id="path8" />
  <path
     class="cls-2"
     d="m 61.2,16.14 h 1.64 v 4.93 c 0,2.13 -1.25,3.41 -3.29,3.41 -2.04,0 -3.28,-1.27 -3.28,-3.41 v -4.93 h 1.64 v 5.07 c 0,1.09 0.61,1.73 1.64,1.73 1.03,0 1.63,-0.64 1.63,-1.73 v -5.07 z"
     id="path9" />
  <path
     class="cls-2"
     d="m 64.89,16.14 h 4.73 v 1.4 h -3.08 v 1.88 h 2.62 v 1.4 h -2.62 v 2.03 h 3.08 v 1.4 h -4.73 z"
     id="path10" />
  <path
     class="cls-2"
     d="m 0.03,27.84 h 4.73 v 1.4 H 1.68 v 1.88 H 4.3 v 1.4 H 1.68 v 3.43 H 0.04 v -8.11 z"
     id="path11" />
  <path
     class="cls-2"
     d="m 6.21,27.84 h 2.48 c 1.78,0 2.88,0.92 2.88,2.42 0,0.97 -0.47,1.7 -1.3,2.1 l 2.55,3.59 H 10.85 L 8.7,32.67 H 7.85 v 3.28 H 6.21 Z m 1.64,1.4 v 2.03 h 0.93 c 0.69,0 1.1,-0.37 1.1,-1.03 0,-0.61 -0.41,-1 -1.1,-1 z"
     id="path12" />
  <path
     class="cls-2"
     d="m 16.24,27.84 h 2.15 l 3.07,8.11 h -1.75 l -0.78,-2.11 h -3.24 l -0.78,2.11 h -1.75 l 3.07,-8.11 z m 2.19,4.59 -1.11,-3.05 -1.11,3.05 z"
     id="path13" />
  <path
     class="cls-2"
     d="m 22.71,27.84 h 2.11 l 3.63,5.8 v -5.8 h 1.64 v 8.11 h -2.11 l -3.63,-5.83 v 5.83 h -1.64 z"
     id="path14" />
  <path
     class="cls-2"
     d="m 38.1,33.52 1.3,1 c -0.63,0.86 -1.6,1.46 -2.78,1.61 l -1.01,1.68 h -1.46 l 1.02,-1.7 c -2.11,-0.37 -3.5,-2.15 -3.5,-4.22 0,-2.32 1.75,-4.29 4.31,-4.29 1.47,0 2.68,0.66 3.42,1.64 l -1.3,1.01 c -0.46,-0.66 -1.19,-1.11 -2.12,-1.11 -1.53,0 -2.62,1.19 -2.62,2.75 0,1.56 1.09,2.75 2.62,2.75 0.93,0 1.66,-0.45 2.12,-1.11 z"
     id="path15" />
  <path
     class="cls-2"
     d="m 42.81,27.84 h 2.15 l 3.07,8.11 H 46.28 L 45.5,33.84 h -3.24 l -0.78,2.11 h -1.75 l 3.07,-8.11 z m 2.19,4.59 -1.11,-3.05 -1.11,3.05 z"
     id="path16" />
  <path
     class="cls-2"
     d="m 49.28,27.84 h 1.64 v 8.11 h -1.64 z"
     id="path17" />
  <path
     class="cls-2"
     d="m 53.66,33.72 c 0.49,0.63 1.14,1 1.8,1 0.66,0 1.04,-0.35 1.04,-0.94 0,-1.45 -3.71,-1.12 -3.71,-3.82 0,-1.29 1.05,-2.35 2.59,-2.35 1.22,0 2.15,0.54 2.84,1.37 l -1.2,1.08 c -0.47,-0.61 -1.01,-1.01 -1.62,-1.01 -0.57,0 -0.94,0.37 -0.94,0.85 0,1.45 3.71,1.11 3.71,3.86 -0.02,1.51 -1.2,2.43 -2.69,2.43 -1.37,0 -2.29,-0.5 -3.01,-1.36 l 1.19,-1.1 z"
     id="path18" />
  <path
     class="cls-2"
     d="m 59.89,27.84 h 4.73 v 1.4 h -3.08 v 1.88 h 2.62 v 1.4 h -2.62 v 2.03 h 3.08 v 1.4 h -4.73 z"
     id="path19" />
  <path
     class="cls-2"
     d="m 26.42,58.33 c 0.22,0 0.41,0.17 0.31,0.59 l -1.02,0.24 c 0.18,-0.48 0.48,-0.83 0.71,-0.83 m 0.56,1.65 h -0.2 c -0.26,0.3 -0.53,0.54 -0.8,0.54 -0.27,0 -0.42,-0.17 -0.42,-0.54 0,-0.15 0.02,-0.31 0.05,-0.45 l 1.65,-0.54 c 0.32,-0.76 -0.07,-1.09 -0.52,-1.09 -0.78,0 -1.66,1.3 -1.66,2.44 0,0.51 0.24,0.79 0.62,0.79 0.45,0 0.91,-0.43 1.29,-1.15 m -0.34,-2.39 1.16,-1.08 v -0.12 h -0.62 l -0.71,1.21 h 0.18 z m -3.55,0.76 h 0.55 l -0.87,2.37 c -0.08,0.2 0.03,0.4 0.24,0.4 0.49,0 1.29,-0.49 1.57,-1.15 h -0.15 c -0.22,0.23 -0.64,0.54 -1,0.61 l 0.8,-2.23 h 0.81 l 0.1,-0.34 h -0.79 l 0.3,-0.86 h -0.32 l -0.56,0.86 -0.67,0.1 v 0.24 z m -0.74,-0.11 c 0.07,-0.22 -0.08,-0.34 -0.2,-0.34 -0.48,0 -1.04,0.43 -1.27,1.03 h 0.15 c 0.15,-0.22 0.42,-0.46 0.66,-0.51 l -0.91,2.37 c -0.08,0.22 0.08,0.34 0.2,0.34 0.45,0 0.98,-0.43 1.21,-1.03 h -0.15 c -0.15,0.22 -0.42,0.46 -0.66,0.51 z m 0.17,-1.19 c 0.21,0 0.39,-0.17 0.39,-0.39 0,-0.22 -0.18,-0.39 -0.39,-0.39 -0.21,0 -0.39,0.18 -0.39,0.39 0,0.21 0.17,0.39 0.39,0.39 m -5.24,3.64 c -0.12,0.27 0,0.44 0.27,0.44 0.16,0 0.23,-0.04 0.3,-0.21 l 0.63,-1.67 c 0.29,-0.36 0.89,-0.74 1.13,-0.74 0.17,0 0.15,0.14 0.04,0.36 l -0.97,1.86 c -0.1,0.18 0.03,0.4 0.24,0.4 0.48,0 1.04,-0.43 1.27,-1.03 h -0.15 c -0.15,0.22 -0.42,0.46 -0.66,0.51 l 0.83,-1.68 c 0.11,-0.21 0.16,-0.42 0.16,-0.58 0,-0.27 -0.15,-0.45 -0.44,-0.45 -0.41,0 -0.83,0.46 -1.32,1.03 v -0.44 c 0,-0.32 -0.1,-0.59 -0.39,-0.59 -0.18,0 -0.35,0.15 -0.51,0.37 v 0.06 c 0.31,-0.02 0.45,0.45 0.23,0.93 l -0.64,1.43 z m -0.01,-2.07 c 0.11,-0.39 0.05,-0.73 -0.24,-0.73 -0.35,0 -0.44,0.27 -0.8,1.03 v -0.44 c 0,-0.32 -0.1,-0.59 -0.39,-0.59 -0.33,0 -0.64,0.52 -0.87,1.03 h 0.15 c 0.16,-0.23 0.31,-0.37 0.43,-0.37 0.14,0 0.22,0.22 0,0.71 l -0.64,1.43 c -0.12,0.27 0,0.44 0.27,0.44 0.16,0 0.23,-0.04 0.3,-0.21 l 0.63,-1.67 c 0.18,-0.22 0.34,-0.41 0.54,-0.62 h 0.62 z m -3.65,-0.29 c 0.22,0 0.41,0.17 0.31,0.59 l -1.02,0.24 c 0.18,-0.48 0.48,-0.83 0.71,-0.83 m 0.56,1.65 h -0.2 c -0.26,0.3 -0.53,0.54 -0.8,0.54 -0.27,0 -0.42,-0.17 -0.42,-0.54 0,-0.15 0.02,-0.31 0.05,-0.45 l 1.65,-0.54 c 0.32,-0.76 -0.07,-1.09 -0.52,-1.09 -0.78,0 -1.66,1.3 -1.66,2.44 0,0.51 0.24,0.79 0.62,0.79 0.45,0 0.91,-0.43 1.29,-1.15 m -3.89,-1.63 h 0.55 l -0.87,2.37 c -0.08,0.2 0.03,0.4 0.24,0.4 0.49,0 1.29,-0.49 1.57,-1.15 h -0.15 c -0.22,0.23 -0.64,0.54 -1,0.61 l 0.8,-2.23 h 0.81 l 0.1,-0.34 h -0.79 l 0.3,-0.86 h -0.32 l -0.56,0.86 -0.67,0.1 v 0.24 z m -3,1.85 c 0,-0.73 0.81,-1.72 1.27,-1.72 0.1,0 0.2,0.01 0.28,0.04 l -0.48,1.27 c -0.27,0.33 -0.7,0.74 -0.89,0.74 -0.11,0 -0.18,-0.1 -0.18,-0.32 M 9.81,57.75 9.56,57.73 9.28,58 H 9.22 c -1.36,0 -2.53,1.52 -2.53,2.63 0,0.31 0.19,0.49 0.49,0.49 0.35,0 0.7,-0.5 1.08,-1.03 l -0.02,0.19 c -0.05,0.55 0.12,0.84 0.4,0.84 0.33,0 0.64,-0.52 0.87,-1.03 H 9.36 c -0.16,0.23 -0.31,0.37 -0.43,0.37 -0.12,0 -0.21,-0.23 0,-0.71 l 0.87,-2 z m -2.89,0.87 c 0.11,-0.39 0.05,-0.73 -0.24,-0.73 -0.35,0 -0.44,0.27 -0.8,1.03 v -0.44 c 0,-0.32 -0.1,-0.59 -0.39,-0.59 -0.33,0 -0.64,0.52 -0.87,1.03 h 0.15 c 0.16,-0.23 0.31,-0.37 0.43,-0.37 0.14,0 0.22,0.22 0,0.71 l -0.64,1.43 c -0.12,0.27 0,0.44 0.27,0.44 0.16,0 0.23,-0.04 0.3,-0.21 L 5.76,59.25 C 5.94,59.03 6.1,58.84 6.3,58.63 H 6.92 Z M 2.37,61.01 2.43,60.83 C 1.64,60.68 1.54,60.68 1.85,59.82 l 0.32,-0.89 h 0.87 c 0.39,0 0.4,0.16 0.34,0.59 H 3.61 L 4.13,58.09 H 3.9 C 3.7,58.43 3.55,58.68 3.12,58.68 H 2.26 l 0.46,-1.25 c 0.14,-0.4 0.23,-0.48 0.76,-0.48 h 0.38 c 0.55,0 0.62,0.15 0.62,0.71 H 4.7 L 4.88,56.69 H 1.6 l -0.06,0.18 c 0.64,0.13 0.7,0.19 0.4,1.01 l -0.71,1.95 c -0.3,0.81 -0.42,0.88 -1.15,1.01 l -0.05,0.18 h 2.34 z"
     id="path20" />
  <path
     class="cls-2"
     d="m 18.46,50.9 c 0.22,0 0.41,0.17 0.31,0.59 l -1.02,0.24 c 0.18,-0.48 0.48,-0.83 0.71,-0.83 m 0.56,1.65 h -0.2 c -0.26,0.3 -0.53,0.54 -0.8,0.54 -0.27,0 -0.42,-0.17 -0.42,-0.54 0,-0.15 0.02,-0.31 0.05,-0.45 l 1.65,-0.54 c 0.32,-0.76 -0.07,-1.09 -0.52,-1.09 -0.78,0 -1.66,1.3 -1.66,2.44 0,0.51 0.24,0.79 0.62,0.79 0.45,0 0.91,-0.43 1.29,-1.15 m -0.34,-2.39 1.16,-1.08 v -0.12 h -0.62 l -0.71,1.21 h 0.18 z m -3.55,0.76 h 0.55 l -0.87,2.37 c -0.08,0.2 0.03,0.4 0.24,0.4 0.49,0 1.29,-0.49 1.57,-1.15 h -0.15 c -0.22,0.23 -0.64,0.54 -1,0.61 l 0.8,-2.23 h 0.81 l 0.1,-0.34 H 16.4 l 0.3,-0.86 h -0.32 l -0.56,0.86 -0.67,0.1 v 0.24 z M 14.4,50.81 c 0.07,-0.22 -0.08,-0.34 -0.2,-0.34 -0.48,0 -1.04,0.43 -1.27,1.03 h 0.15 c 0.15,-0.22 0.42,-0.46 0.66,-0.51 l -0.91,2.37 c -0.08,0.22 0.08,0.34 0.2,0.34 0.45,0 0.98,-0.43 1.21,-1.03 h -0.15 c -0.15,0.22 -0.42,0.46 -0.66,0.51 z m 0.17,-1.19 c 0.21,0 0.39,-0.17 0.39,-0.39 0,-0.22 -0.18,-0.39 -0.39,-0.39 -0.21,0 -0.39,0.18 -0.39,0.39 0,0.21 0.17,0.39 0.39,0.39 m -3.16,3.55 1.66,-4.35 -0.05,-0.07 -1.04,0.12 v 0.12 l 0.2,0.15 c 0.18,0.14 0.12,0.28 -0.04,0.72 l -1.3,3.41 c -0.1,0.18 0.03,0.4 0.24,0.4 0.48,0 0.98,-0.43 1.21,-1.03 h -0.15 c -0.15,0.22 -0.48,0.46 -0.72,0.51 M 8.26,52.77 c 0,-0.73 0.81,-1.72 1.27,-1.72 0.1,0 0.2,0.01 0.28,0.04 L 9.33,52.36 C 9.06,52.69 8.63,53.1 8.44,53.1 8.33,53.1 8.26,53 8.26,52.78 m 2.5,-2.46 -0.25,-0.02 -0.28,0.27 h -0.06 c -1.36,0 -2.53,1.52 -2.53,2.63 0,0.31 0.19,0.49 0.49,0.49 0.35,0 0.7,-0.5 1.08,-1.03 l -0.02,0.19 c -0.05,0.55 0.12,0.84 0.4,0.84 0.33,0 0.64,-0.52 0.87,-1.03 h -0.15 c -0.16,0.23 -0.31,0.37 -0.43,0.37 -0.12,0 -0.21,-0.23 0,-0.71 l 0.87,-2 z m -6.05,3.95 c 0,-0.32 0.3,-0.51 0.74,-0.68 0.14,0.07 0.36,0.15 0.64,0.24 0.45,0.15 0.62,0.21 0.62,0.34 0,0.29 -0.49,0.51 -1.17,0.51 -0.56,0 -0.84,-0.12 -0.84,-0.42 m 1.24,-1.91 c -0.2,0 -0.27,-0.17 -0.27,-0.36 0,-0.53 0.29,-1.31 0.73,-1.31 0.2,0 0.27,0.17 0.27,0.36 0,0.53 -0.29,1.31 -0.73,1.31 m 1.29,1.63 C 7.23,53.6 6.89,53.46 6.34,53.3 5.86,53.16 5.65,53.12 5.65,52.96 c 0,-0.12 0.1,-0.27 0.3,-0.38 0.78,-0.04 1.28,-0.74 1.28,-1.33 0,-0.12 -0.02,-0.23 -0.07,-0.33 h 0.66 l 0.1,-0.34 H 6.87 C 6.75,50.5 6.6,50.46 6.45,50.46 c -0.83,0 -1.36,0.73 -1.36,1.31 0,0.45 0.29,0.73 0.63,0.79 -0.39,0.17 -0.6,0.37 -0.6,0.61 0,0.14 0.05,0.23 0.16,0.32 -0.89,0.26 -1.24,0.56 -1.24,0.98 0,0.42 0.54,0.58 1.18,0.58 1.09,0 2,-0.59 2,-1.08 M 3.07,51.44 c 0.39,0 0.4,0.16 0.34,0.59 H 3.64 L 4.16,50.6 H 3.93 c -0.2,0.34 -0.35,0.59 -0.78,0.59 H 2.29 L 2.72,50 c 0.14,-0.4 0.23,-0.48 0.76,-0.48 h 0.38 c 0.55,0 0.62,0.15 0.62,0.7 H 4.7 L 4.88,49.25 H 1.6 l -0.06,0.18 c 0.64,0.13 0.7,0.19 0.4,1.01 L 1.23,52.39 C 0.93,53.2 0.81,53.27 0.08,53.4 L 0.03,53.58 H 3.68 L 4.33,52.55 H 4.08 c -0.42,0.39 -0.94,0.77 -1.67,0.77 -0.97,0 -0.88,-0.04 -0.56,-0.93 l 0.34,-0.95 h 0.87 z m 0.48,-2.5 1.16,-0.8 v -0.12 h -0.7 l -0.64,0.92 z"
     id="path21" />
  <path
     class="cls-2"
     d="m 18.07,43.47 c 0.22,0 0.41,0.17 0.31,0.59 l -1.02,0.24 c 0.18,-0.48 0.48,-0.83 0.71,-0.83 m 0.57,1.65 h -0.2 c -0.26,0.3 -0.53,0.54 -0.8,0.54 -0.27,0 -0.42,-0.17 -0.42,-0.54 0,-0.15 0.02,-0.31 0.05,-0.45 l 1.65,-0.54 c 0.32,-0.76 -0.07,-1.09 -0.52,-1.09 -0.78,0 -1.66,1.3 -1.66,2.44 0,0.51 0.24,0.79 0.62,0.79 0.45,0 0.91,-0.43 1.29,-1.15 m -0.34,-2.39 1.16,-1.08 v -0.12 h -0.62 l -0.71,1.21 h 0.18 z m -3.41,0.76 h 0.43 l -0.87,2.37 c -0.08,0.2 0.03,0.4 0.24,0.4 0.49,0 1.29,-0.49 1.57,-1.15 h -0.15 c -0.22,0.23 -0.64,0.54 -1,0.61 l 0.8,-2.23 h 0.81 l 0.1,-0.34 h -0.79 l 0.3,-0.86 h -0.32 l -0.56,0.86 -0.56,0.1 z m -0.43,0.26 c 0.11,-0.39 0.05,-0.73 -0.24,-0.73 -0.35,0 -0.44,0.27 -0.8,1.03 v -0.44 c 0,-0.32 -0.1,-0.59 -0.39,-0.59 -0.33,0 -0.64,0.52 -0.87,1.03 h 0.15 c 0.16,-0.23 0.31,-0.37 0.43,-0.37 0.14,0 0.22,0.22 0,0.71 l -0.64,1.43 c -0.12,0.27 0,0.44 0.27,0.44 0.16,0 0.23,-0.04 0.3,-0.21 l 0.63,-1.67 c 0.18,-0.22 0.34,-0.41 0.54,-0.62 h 0.62 z m -3.65,-0.28 c 0.22,0 0.41,0.17 0.31,0.59 l -1.02,0.24 c 0.18,-0.48 0.48,-0.83 0.71,-0.83 m 0.57,1.65 h -0.2 c -0.26,0.3 -0.53,0.54 -0.8,0.54 -0.27,0 -0.42,-0.17 -0.42,-0.54 0,-0.15 0.02,-0.31 0.05,-0.45 l 1.65,-0.54 c 0.32,-0.76 -0.07,-1.09 -0.52,-1.09 -0.78,0 -1.66,1.3 -1.66,2.44 0,0.51 0.24,0.79 0.62,0.79 0.45,0 0.91,-0.43 1.29,-1.15 m -4.05,0.66 c -0.16,0 -0.39,-0.15 -0.39,-0.28 0,-0.04 0.07,-0.23 0.16,-0.46 l 0.27,-0.71 c 0.29,-0.34 0.72,-0.7 0.96,-0.7 0.15,0 0.26,0.1 0.26,0.32 0,0.65 -0.61,1.83 -1.26,1.83 m 1.88,-2.09 c 0,-0.48 -0.18,-0.66 -0.51,-0.66 -0.42,0 -0.81,0.44 -1.2,0.97 L 8.51,41.39 8.46,41.32 7.42,41.44 v 0.12 l 0.2,0.15 C 7.8,41.85 7.74,42 7.58,42.43 l -1.07,2.76 c -0.08,0.2 -0.17,0.44 -0.17,0.51 0,0.29 0.39,0.55 0.74,0.55 0.81,0 2.16,-1.46 2.16,-2.57 M 5.99,43.37 c 0.07,-0.22 -0.08,-0.34 -0.2,-0.34 -0.48,0 -1.04,0.43 -1.27,1.03 H 4.67 C 4.82,43.84 5.09,43.6 5.33,43.55 l -0.91,2.37 c -0.08,0.22 0.08,0.34 0.2,0.34 0.45,0 0.98,-0.43 1.21,-1.03 H 5.68 c -0.15,0.22 -0.42,0.46 -0.66,0.51 z m 0.17,-1.18 c 0.21,0 0.39,-0.17 0.39,-0.39 0,-0.22 -0.18,-0.39 -0.39,-0.39 -0.21,0 -0.39,0.18 -0.39,0.39 0,0.21 0.17,0.39 0.39,0.39 M 3.76,41.8 H 1.6 l -0.06,0.18 c 0.64,0.13 0.7,0.19 0.4,1.01 l -0.7,1.95 c -0.3,0.81 -0.42,0.88 -1.15,1.01 L 0.04,46.13 H 3.33 L 4.04,44.86 H 3.79 c -0.4,0.45 -0.88,1 -1.61,1 -0.55,0 -0.62,-0.1 -0.32,-0.93 l 0.7,-1.95 C 2.85,42.17 2.98,42.1 3.71,41.97 l 0.05,-0.18 z"
     id="path22" />
  <path
     class="cls-5"
     d="M 12.25,9.49 C 12.37,9.37 12.48,9.25 12.6,9.13 v 0 C 12.82,8.89 13.03,8.65 13.28,8.44 13.36,8.37 13.43,8.31 13.5,8.26 13.52,8.24 13.52,8.2 13.54,8.18 13.44,8.22 13.38,8.3 13.28,8.34 13.26,8.34 13.24,8.32 13.26,8.3 13.33,8.25 13.4,8.19 13.48,8.14 c 0,0 0,0 -0.01,0 C 13.45,8.14 13.45,8.12 13.45,8.1 13.19,8.06 12.98,8.24 12.8,8.41 12.76,8.43 12.72,8.39 12.7,8.39 12.39,8.49 12.17,8.76 11.87,8.88 V 8.84 C 11.75,8.88 11.63,8.95 11.5,8.98 11.32,9.02 11.15,9 10.99,9 10.74,9.02 10.5,9.08 10.25,9.13 c 0,0 -0.01,0 -0.02,0 -0.13,0.04 -0.26,0.09 -0.38,0.15 0,0 0,0 -0.01,0 C 9.83,9.29 9.82,9.3 9.81,9.32 9.77,9.37 9.73,9.41 9.67,9.44 9.54,9.5 9.44,9.61 9.33,9.7 c 0,0 -0.02,0 -0.03,0.01 -0.11,0.1 -0.22,0.21 -0.33,0.31 0,0 -0.04,0.01 -0.06,0 0,0 0,0 0,0 0,0 0,-0.01 0.01,-0.02 C 8.94,9.97 8.95,9.94 8.97,9.91 8.99,9.88 9.01,9.85 9.03,9.82 9.06,9.78 9.09,9.74 9.12,9.7 c 0,-0.01 0,-0.02 0,-0.03 0,0 -0.02,-0.01 -0.03,-0.01 0.1,-0.1 0.22,-0.18 0.34,-0.25 0,0 0,0 0,0 -0.01,0 -0.03,0 -0.02,-0.02 0.01,-0.02 0.02,-0.04 0.04,-0.06 0,0 0,-0.01 0,-0.02 0,0 -0.01,-0.01 -0.02,-0.02 C 9.4,9.31 9.36,9.33 9.33,9.36 9.28,9.4 9.24,9.49 9.17,9.49 c 0,0 -0.02,0 -0.03,0 0,0 -0.02,0 -0.02,0 0,0 0,0 0,0 0,0 0,0 0,0 0,0 0,0 0,0 0,0 0,-0.01 0,-0.02 0,0 0,-0.01 0,-0.02 0,0 0,0 0,-0.01 0,0 0,-0.02 0.01,-0.03 0,0 0,-0.01 0.01,-0.02 0,-0.02 0.02,-0.03 0.03,-0.04 0,0 0,-0.01 0.01,-0.02 C 9.18,9.32 9.19,9.31 9.2,9.29 9.21,9.27 9.2,9.26 9.18,9.25 9.22,9.2 9.26,9.16 9.32,9.13 v 0 C 9.4,9.09 9.48,9.04 9.55,9 9.56,9 9.57,8.98 9.58,8.97 9.46,9.01 9.36,9.06 9.26,9.13 c 0,0 -0.03,0.01 -0.03,0.02 0,0 -0.02,0 -0.05,-0.02 0,0 0,0 0,-0.01 0.02,-0.04 0.08,-0.06 0.12,-0.1 0.02,0 0.04,0 0.04,0.02 0.65,-0.51 1.55,-0.39 2.3,-0.65 0.06,-0.04 0.12,-0.08 0.18,-0.12 0.1,-0.04 0.18,-0.14 0.31,-0.2 0.16,-0.12 0.28,-0.26 0.35,-0.47 0,-0.02 -0.02,-0.04 -0.02,-0.04 -0.26,0.28 -0.57,0.51 -0.9,0.67 -0.43,0.22 -0.9,0.18 -1.34,0.24 0.02,-0.04 0.06,-0.04 0.1,-0.04 0,-0.06 0.04,-0.08 0.08,-0.12 h 0.06 c 0,0 0.02,-0.04 0.04,-0.04 0.04,0 0.1,-0.02 0.08,-0.02 -0.06,-0.08 -0.18,0.06 -0.28,0 0.04,-0.04 0.02,-0.1 0.06,-0.12 h 0.08 c 0,0 0.04,-0.08 0.04,-0.08 0.31,-0.18 0.59,-0.33 0.87,-0.49 -0.06,0 -0.1,0.06 -0.16,0.02 0.04,0 0,-0.06 0.04,-0.06 0.22,-0.06 0.41,-0.18 0.63,-0.26 -0.08,0 -0.14,0.06 -0.22,0 C 11.68,7.24 11.7,7.2 11.76,7.2 V 7.14 c 0,0 0.02,-0.02 0.04,-0.02 -0.02,0 -0.04,-0.02 -0.04,-0.02 0.02,-0.04 0.08,-0.02 0.12,-0.06 -0.02,0 -0.06,0 -0.06,-0.02 C 11.88,6.94 11.98,6.92 12.08,6.9 12.06,6.86 12,6.9 12,6.86 12,6.84 12.02,6.84 12.04,6.84 H 12 c 0,0 -0.02,-0.06 -0.02,-0.08 0.12,-0.14 0.12,-0.33 0.18,-0.49 -0.02,0 -0.04,0 -0.04,-0.02 -0.2,0.22 -0.53,0.31 -0.83,0.39 h -0.1 C 11.09,6.68 10.95,6.68 10.84,6.62 10.76,6.58 10.72,6.52 10.64,6.46 10.48,6.36 10.31,6.28 10.13,6.22 9.62,6.06 9.09,5.98 8.56,6 8.78,5.88 9.03,5.87 9.27,5.8 9.62,5.7 9.94,5.58 10.31,5.6 10.25,5.58 10.17,5.6 10.11,5.6 9.83,5.58 9.54,5.66 9.24,5.72 9.04,5.76 8.85,5.84 8.65,5.88 8.53,5.92 8.47,6.04 8.32,6.02 V 5.96 c 0.2,-0.24 0.45,-0.49 0.77,-0.51 0.37,-0.06 0.71,0 1.08,0.04 0.26,0.02 0.51,0.08 0.77,0.14 0.1,0 0.12,0.16 0.2,0.18 0.12,0.04 0.24,0 0.37,0.08 0,-0.04 -0.02,-0.08 0,-0.12 0.08,-0.08 0.18,0.02 0.26,-0.02 0.16,-0.1 -0.14,-0.28 -0.22,-0.43 0,-0.02 0.02,-0.04 0.02,-0.04 0.16,0.14 0.28,0.31 0.49,0.41 0.1,0.04 0.35,0.1 0.31,-0.02 C 12.27,5.45 12.06,5.26 11.9,5.06 V 4.98 c 0,0 -0.04,-0.02 -0.06,-0.04 V 4.86 C 11.76,4.82 11.78,4.74 11.74,4.68 11.68,4.58 11.72,4.44 11.68,4.31 11.64,4.18 11.62,4.09 11.6,3.96 11.54,3.61 11.46,3.31 11.42,2.98 11.38,2.59 11.64,2.29 11.83,1.94 11.97,1.7 12.14,1.45 12.4,1.29 12.46,1.05 12.62,0.84 12.79,0.64 12.95,0.44 13.22,0.32 13.42,0.23 13.7,0.1 13.96,0.02 13.96,0.02 H 0 v 10.77 h 9.89 c 0.39,-0.28 0.77,-0.41 1.31,-0.68 0.26,-0.13 0.84,-0.39 1.04,-0.59 z M 9.12,8.03 C 9.12,8.03 9,8.05 9.02,8.01 9.04,7.91 9.18,7.91 9.26,7.87 9.3,7.85 9.36,7.81 9.4,7.83 9.44,7.89 9.5,7.87 9.54,7.91 9.42,8.03 9.26,7.97 9.11,8.03 Z M 6,7.59 C 6,7.59 5.98,7.57 5.98,7.55 6.24,7.2 6.45,6.88 6.63,6.51 6.89,6.37 7.11,6.16 7.32,5.94 7.67,5.57 8.03,5.25 8.46,5.04 8.62,4.98 8.83,5 8.99,5.06 8.93,5.14 8.83,5.12 8.75,5.18 8.73,5.18 8.71,5.18 8.69,5.16 8.71,5.14 8.71,5.12 8.71,5.1 8.51,5.32 8.22,5.43 8.06,5.69 7.94,5.89 7.86,6.16 7.59,6.22 7.51,6.24 7.61,6.16 7.57,6.18 6.94,6.57 6.49,7.03 6,7.58 Z M 7.69,6.24 c 0,0 -0.04,0.04 -0.06,0.08 C 7.61,6.36 7.59,6.38 7.55,6.4 7.53,6.4 7.51,6.4 7.51,6.38 7.53,6.3 7.59,6.22 7.67,6.2 c 0.02,0 0.02,0.02 0.02,0.04 z m 0.95,3.05 c 0,0 -0.03,0.04 -0.05,0.06 0.03,0 0.04,0.02 0.03,0.03 -0.05,0.04 -0.09,0.09 -0.15,0.11 0,0 -0.02,0 -0.03,0 C 8.42,9.51 8.39,9.54 8.36,9.56 8.34,9.58 8.22,9.56 8.26,9.54 8.31,9.49 8.36,9.44 8.41,9.4 8.44,9.37 8.47,9.35 8.49,9.32 8.5,9.3 8.52,9.29 8.53,9.27 8.55,9.26 8.65,9.25 8.64,9.29 Z M 8.27,9.12 c 0,0 0,0 0,0 C 8.19,9.17 8.12,9.23 8.04,9.27 7.95,9.32 7.86,9.36 7.77,9.4 c 0,0 0,0 0,0 0,0 -0.02,-0.02 -0.03,0 -0.08,0.04 -0.14,0.1 -0.2,0.16 0,0 -0.02,0.02 -0.03,0.03 0,0 0,0 0,0 0,0 0,0 0,0 0,0 -0.02,0.02 -0.03,0.03 0,0 0,0 0,0 0,0 0,0 0,0 C 7.47,9.63 7.45,9.65 7.44,9.67 7.43,9.68 7.43,9.69 7.41,9.7 7.4,9.7 7.36,9.7 7.37,9.68 c 0,0 0,0 0,0 -0.01,0 -0.02,0.01 -0.04,0.02 -0.01,0 -0.02,0.01 -0.03,0.02 0,0 0,0 -0.01,0 0,0 -0.01,0 -0.01,0 C 7.26,9.74 7.23,9.76 7.21,9.78 7.17,9.82 7.13,9.86 7.09,9.91 c 0,0 0,0 0,0 0,0 0,0 0,0 0,0 0,0 0,0 0,0 0,0 0,0 0,0 0,0 0,0 0,0 0,0.01 -0.01,0.02 0,0 0,0 0,0 0,0 0,0 -0.02,0 0,0 0,0 0,-0.01 0,0 0,0 0,0 0,-0.01 -0.01,-0.02 -0.02,-0.03 0,0 0,0 0,0 0,0 0,0 0,-0.01 0.02,-0.02 0.04,-0.05 0.06,-0.07 0,0 0,0 0,0 0,0 0.01,-0.02 0.02,-0.03 0.01,-0.01 0.02,-0.03 0.03,-0.04 0,0 0,-0.01 0.01,-0.02 0.02,-0.03 0.04,-0.06 0.06,-0.09 0,0 0,0 0,0 0,0 0,0 0,-0.01 0,-0.01 0.02,-0.03 0.03,-0.04 0,-0.01 0.02,-0.03 0.02,-0.04 0,0 0,0 0,0 0,0 0,0 0,0 0,0 0,0 0,0 0,-0.02 0.01,-0.03 0.02,-0.05 0,0 0,0 0,0 0,0 0,0 0,-0.01 0,0 0,-0.01 0,-0.02 v 0 c 0,0 0,0 0,0 0,0 0,-0.02 0,-0.03 0,0 0,0 0,-0.01 0.02,-0.04 0.05,-0.07 0.08,-0.11 0,0 0,0 0,0 C 7.34,9.33 7.32,9.35 7.29,9.38 7.27,9.4 7.23,9.37 7.25,9.35 7.27,9.34 7.28,9.32 7.3,9.31 c 0,0 0,0 0,0 C 7.33,9.28 7.37,9.23 7.4,9.21 7.42,9.19 7.44,9.18 7.46,9.16 c 0,0 0,0 0,0 0.01,-0.02 0.03,-0.04 0.05,-0.05 0,0 0,0 0,0 0.19,-0.19 0.52,-0.18 0.78,-0.3 0.1,-0.04 0.22,0.02 0.33,0 0.06,0 0.12,0 0.18,0.04 C 8.62,8.95 8.45,9.06 8.28,9.17 Z M 8.69,7.71 c 0,0 0.06,0 0.08,-0.04 H 8.61 C 8.61,7.67 8.59,7.65 8.59,7.63 8.49,7.65 8.37,7.69 8.26,7.71 8.12,7.75 8,7.85 7.83,7.89 7.61,7.97 7.42,8.15 7.18,8.24 7.16,8.24 7.16,8.22 7.16,8.2 7.18,8.14 7.26,8.12 7.3,8.06 7.3,8.04 7.3,8.02 7.28,8.02 7.44,7.8 7.67,7.67 7.87,7.49 V 7.43 C 7.93,7.35 8.03,7.31 8.07,7.21 8.09,7.15 8.17,7.07 8.27,7.03 8.25,7.01 8.21,7.01 8.21,6.97 8.13,6.97 8.05,7.01 7.97,6.95 8.01,6.91 8.05,6.89 8.1,6.88 8.08,6.88 8.07,6.87 8.05,6.85 8.03,6.81 8.09,6.76 8.15,6.75 8.23,6.73 8.33,6.73 8.39,6.67 8.25,6.65 8.08,6.71 7.94,6.63 8.04,6.37 8.2,6.14 8.45,6.02 c 0.02,0 0.06,0 0.06,0.02 0,0.1 -0.06,0.18 -0.16,0.2 0.16,0.04 0.33,0.04 0.49,0.12 -0.02,0.04 -0.06,0.02 -0.08,0.02 0.1,0.06 0.22,0.02 0.33,0.1 -0.06,0.06 -0.12,0 -0.18,0 0.63,0.18 1.3,0.33 1.83,0.73 -0.45,0.22 -0.92,0.33 -1.4,0.43 -0.06,0 -0.1,0 -0.16,-0.02 0,0.02 0,0.06 -0.02,0.06 -0.08,0 -0.14,0 -0.2,0.04 -0.08,0.04 -0.2,0.06 -0.26,0 z"
     id="path23" />
  <path
     class="cls-3"
     d="M 29.61,0 H 18.03 c 0,0 0.02,0 0.11,0.05 0.09,0.05 0.22,0.12 0.29,0.16 0.15,0.08 0.29,0.18 0.39,0.33 0.04,0.06 0.1,0.18 0.06,0.26 -0.04,0.1 -0.06,0.26 -0.16,0.31 -0.12,0.06 -0.28,0.06 -0.43,0.04 -0.08,0 -0.16,-0.02 -0.24,-0.04 0.31,0.12 0.59,0.26 0.79,0.55 0.02,0.04 0.1,0.06 0.18,0.06 0.02,0 0.02,0.04 0.02,0.06 C 19,1.82 18.96,1.84 18.98,1.9 h 0.06 c 0.1,-0.04 0.08,-0.24 0.22,-0.18 0.1,0.06 0.14,0.2 0.08,0.31 -0.08,0.08 -0.16,0.14 -0.24,0.2 -0.02,0.04 -0.02,0.1 0,0.14 0.06,0.08 0.08,0.16 0.1,0.24 0.06,0.14 0.08,0.31 0.14,0.45 0.08,0.31 0.16,0.61 0.14,0.92 0,0.16 -0.08,0.31 -0.02,0.47 0.04,0.16 0.14,0.28 0.22,0.43 0.08,0.12 0.16,0.2 0.22,0.33 0.12,0.2 0.35,0.41 0.24,0.65 -0.06,0.14 -0.28,0.12 -0.43,0.2 -0.12,0.1 -0.02,0.26 0.04,0.37 0.1,0.18 -0.12,0.31 -0.26,0.37 0.04,0.06 0.12,0.04 0.14,0.08 0.02,0.1 0.12,0.16 0.06,0.26 -0.08,0.12 -0.33,0.18 -0.2,0.37 0.08,0.14 0.03,0.3 -0.02,0.45 C 19.41,8.14 19.25,8.22 19.1,8.27 18.98,8.31 18.84,8.31 18.71,8.29 18.67,8.27 18.63,8.25 18.59,8.25 18.24,8.21 17.9,8.11 17.55,8.11 c -0.1,0.02 -0.2,0.04 -0.28,0.08 -0.09,0.07 -0.17,0.14 -0.25,0.22 0,0 0,0 0,0 -0.02,0.02 -0.03,0.03 -0.04,0.05 0,0.01 -0.02,0.02 -0.03,0.03 0,0 -0.01,0.01 -0.02,0.02 -0.06,0.07 -0.11,0.15 -0.16,0.23 0,0 0,0.01 0,0.02 0,0 -0.01,0.02 -0.02,0.03 -0.07,0.12 -0.12,0.25 -0.15,0.37 -0.14,0.47 -0.08,0.87 0.02,0.96 0.03,0.03 0.67,0.23 1.12,0.43 0.21,0.09 0.36,0.17 0.48,0.24 H 29.59 V 0.02 Z"
     id="path24" />
  <path
     class="cls-1"
     d="m 18.72,3.92 c 0.08,0.02 0.2,0.02 0.2,0.06 -0.04,0.16 -0.28,0.2 -0.41,0.37 h -0.06 c -0.06,0.04 -0.04,0.14 -0.1,0.14 -0.06,-0.02 -0.12,0 -0.18,0.02 0.08,0.08 0.18,0.14 0.31,0.12 0.02,0 0.06,0.04 0.06,0.08 0,0 0.02,0 0.04,-0.02 0.02,0 0.04,0 0.04,0.02 v 0.08 c -0.06,0.08 -0.16,0.04 -0.24,0.06 0.16,0.04 0.33,0.04 0.47,0 0.12,-0.04 0,-0.24 0.08,-0.35 -0.04,0 0,-0.06 -0.04,-0.06 0.04,-0.04 0.08,-0.1 0.12,-0.12 0.04,0 0.1,-0.02 0.12,-0.06 0,-0.04 -0.08,-0.06 -0.06,-0.1 0.12,-0.08 0.22,-0.2 0.18,-0.33 -0.02,-0.06 -0.18,-0.06 -0.28,-0.1 -0.1,-0.04 -0.22,0 -0.35,0.02 -0.1,0 -0.2,0.06 -0.31,0.08 -0.14,0.04 -0.26,0.12 -0.39,0.2 0.14,-0.06 0.28,-0.08 0.45,-0.12 0.12,0 0.23,-0.03 0.35,0 z"
     id="path25" />
  <path
     class="cls-3"
     d="m 115.95,7.72 c 1.64,-0.99 3.32,-2.3 4.83,-3.84 1.18,-1.2 -4.02,-0.66 -5.27,0.4 -1.34,1.15 -2.73,2.42 -4,3.9 -0.74,0.86 2.81,0.51 4.43,-0.47 z m 95.08,26.97 c 0.92,0.55 0.88,-2.34 -0.98,-3.49 -6.66,-4.15 -24.88,3.08 -31.79,3.91 -1.3,0.16 -1.77,-0.17 -1.46,-1.05 0.59,-1.69 2.9,-4.81 3.36,-5.88 0.44,-1.02 0.38,-4.55 -4.83,-4.55 -4.26,0 -8.16,1.98 -10.91,4.47 -2.62,2.23 -7.68,6.64 -10.8,6.64 -3.12,0 6.23,-9.76 6.75,-10.25 1.41,-1.32 -3.03,-0.99 -4.89,0.43 -0.74,0.57 -3.72,3.75 -5.58,6.83 -5.38,3.72 -10.73,4.58 -8.19,1.49 1.35,-1.65 3.65,-3.85 5.22,-5.6 2.2,-2.44 1.8,-4.05 -3.06,-4.05 -6.5,0 -7.19,0.57 -10.86,4.86 -0.68,0.8 -0.33,2.8 0.37,2.11 4.4,-4.36 4.3,-4 10.13,-4 -0.94,1 -2.61,1.99 -5.44,5.58 -2.52,3.21 -0.87,5.8 2.71,5.8 1.98,0 4.94,-0.93 7.65,-2.84 -0.32,1.67 0.35,2.87 2.9,2.87 2.96,0 6.33,-1.76 9.13,-3.72 -0.35,2.12 0.74,3.72 3.87,3.72 2.41,0 5.21,-0.95 8.11,-3.46 -0.02,1.92 1.34,3.44 3.86,3.44 6.14,0 27.34,-7.7 34.72,-3.25 z M 166,35.2 c -4.03,0 4.04,-9.2 9.29,-9.2 3.14,0 -5.4,9.2 -9.29,9.2 z m -3.2,-14.23 c 1.63,-0.98 4.71,-3.37 6.22,-4.9 1.18,-1.2 -4.02,-0.66 -5.27,0.4 -1.35,1.15 -3.59,3.21 -4.85,4.7 -0.74,0.87 2.28,0.78 3.9,-0.2 z m -31.78,9.8 c -1.58,1.54 -5.03,4.12 -8.04,4.12 -2.23,0 2.21,-4 4.41,-7.22 2.1,-3.08 0.38,-4 -1.35,-4 -4.3,0 -8.49,3.01 -11.33,5.14 0.86,-1.15 2.2,-2.63 3.62,-4.51 0.79,-1.05 -3.95,-0.67 -5.16,0.92 -0.39,0.5 -0.81,1.07 -1.27,1.68 -4.11,4.94 -10.32,8.27 -13.369999,8.27 -1.7,0 -2.32,-1.17 -1.26,-3.38 C 99.820001,26.46 108.6,16.33 113.37,11.9 c 2.17,-2.03 -4.34,-1.2 -5.84,0.3 -6.61,6.65 -13.269999,14.08 -15.139999,19.86 -1.04,3.2 -0.08,6.07 3.89,6.07 3.26,0 6.869999,-1.61 9.939999,-3.53 -0.75,1.03 -1.44,1.96 -2,2.71 -0.87,1.17 3.52,0.74 4.45,-0.44 3.47,-4.44 11.81,-9.9 14.13,-9.9 2.11,0 -5.16,5.45 -5.1,8.79 0.08,4.38 10.24,1.7 13.68,-2.81 0.54,-0.7 0.12,-2.64 -0.37,-2.17 z"
     id="path26" />
</svg>
